<svg width="48" height="73" viewBox="0 0 48 73" fill="none" xmlns="http://www.w3.org/2000/svg">
<g id="Vector">
<path d="M15.9383 10.0754C16.1667 10.0807 16.3959 10.0913 16.6262 10.1078C18.3134 10.2283 20.3309 10.6352 22.3575 11.2794C29.2271 11.2605 35.7134 7.18153 38.4645 0.5L38.4684 0.501519C38.4334 0.586402 38.399 0.671616 38.3653 0.757264C34.8856 9.59813 39.1964 19.5592 48 23.1438L47.9963 23.147C47.911 23.1123 47.8254 23.0782 47.7392 23.0447C38.8489 19.5844 28.8319 23.871 25.2274 32.6257C25.2104 32.5874 25.3123 32.4101 25.3292 32.3672C27.1609 27.7132 26.8338 22.7488 24.8289 18.5675C22.8037 16.8806 20.0667 15.4789 17.5973 15.2947C10.8801 14.8151 7.29817 18.358 6.81578 25.0377C6.41973 30.5236 9.75825 35.4188 14.6854 37.2589C15.2487 37.4693 15.8328 37.6396 16.4343 37.7665C15.8408 37.7999 15.2386 37.796 14.63 37.7526C6.95324 37.2043 1.177 30.5716 1.72833 22.9377C2.26247 15.538 8.54571 9.91429 15.9222 10.0751C15.8466 10.0431 15.7708 10.0115 15.6945 9.98048L15.6953 9.97853C15.776 10.0113 15.8569 10.0437 15.9383 10.0754Z" fill="#211E43"/>
<path d="M32.0617 62.9246C31.8333 62.9193 31.6041 62.9087 31.3738 62.8922C29.6866 62.7717 27.6691 62.3648 25.6425 61.7206C18.7729 61.7395 12.2866 65.8185 9.53555 72.5L9.53164 72.4985C9.56655 72.4136 9.60099 72.3284 9.6347 72.2427C13.1144 63.4019 8.80364 53.4408 0 49.8562L0.0036602 49.853C0.089018 49.8877 0.17463 49.9218 0.260758 49.9553C9.15111 53.4156 19.1681 49.129 22.7726 40.3743C22.7896 40.4126 22.6877 40.5899 22.6708 40.6328C20.8391 45.2868 21.1662 50.2512 23.1711 54.4325C25.1963 56.1194 27.9333 57.5211 30.4027 57.7053C37.1199 58.1849 40.7018 54.642 41.1842 47.9623C41.5803 42.4764 38.2418 37.5812 33.3146 35.7411C32.7513 35.5307 32.1672 35.3604 31.5657 35.2335C32.1592 35.2001 32.7614 35.204 33.37 35.2474C41.0468 35.7957 46.823 42.4284 46.2717 50.0623C45.7375 57.462 39.4543 63.0857 32.0778 62.9249C32.1534 62.9569 32.2292 62.9885 32.3055 63.0195L32.3047 63.0215C32.224 62.9887 32.1431 62.9563 32.0617 62.9246Z" fill="#211E43"/>
</g>
</svg>
