<svg width="23" height="24" viewBox="0 0 23 24" fill="none" xmlns="http://www.w3.org/2000/svg">
<path fill-rule="evenodd" clip-rule="evenodd" d="M21.3313 3.77529C19.841 2.8296 18.0747 2.28221 16.1809 2.28221C10.852 2.28221 6.53211 6.61653 6.53211 11.9632C6.53211 17.3099 10.852 21.6442 16.1809 21.6442C18.1463 21.6442 19.9744 21.0546 21.4992 20.0421C19.3105 22.4727 16.1441 24 12.6222 24C6.01684 24 0.662109 18.6274 0.662109 12C0.662109 5.37258 6.01684 0 12.6222 0C16.0551 0 19.1501 1.4511 21.3313 3.77529Z" fill="black"/>
<path d="M15.0949 4.27231C15.0953 4.27185 15.0961 4.27185 15.0965 4.27231C15.0968 4.27252 15.0969 4.27282 15.0969 4.27313C15.1695 8.50736 18.577 11.9262 22.7972 11.9991C22.7975 11.9991 22.7978 11.9992 22.798 11.9995C22.7985 11.9999 22.7985 12.0007 22.798 12.0011C22.7978 12.0014 22.7975 12.0015 22.7972 12.0015C18.577 12.0744 15.1695 15.4932 15.0969 19.7275C15.0969 19.7278 15.0968 19.7281 15.0965 19.7283C15.0961 19.7287 15.0953 19.7287 15.0949 19.7283C15.0947 19.7281 15.0945 19.7278 15.0945 19.7275C15.0219 15.4932 11.6144 12.0744 7.39422 12.0015C7.39391 12.0015 7.39361 12.0014 7.39339 12.0011C7.39294 12.0007 7.39294 11.9999 7.3934 11.9995C7.39361 11.9993 7.39391 11.9991 7.39422 11.9991C11.6144 11.9263 15.0219 8.50737 15.0945 4.27313C15.0945 4.27282 15.0947 4.27252 15.0949 4.27231Z" fill="black"/>
</svg>
