<svg width="46" height="49" viewBox="0 0 46 49" fill="none" xmlns="http://www.w3.org/2000/svg">
<path fill-rule="evenodd" clip-rule="evenodd" d="M42.6547 7.70787C39.6031 5.7771 35.9863 4.65951 32.1086 4.65951C21.1971 4.65951 12.3516 13.5088 12.3516 24.4248C12.3516 35.3409 21.1971 44.1902 32.1086 44.1902C36.133 44.1902 39.8763 42.9865 42.9984 40.9193C38.5167 45.8817 32.0333 49 24.8218 49C11.2965 49 0.332031 38.031 0.332031 24.5C0.332031 10.969 11.2965 0 24.8218 0C31.851 0 38.1885 2.96265 42.6547 7.70787Z" fill="white"/>
<path d="M29.8847 8.72189C29.8856 8.72096 29.8871 8.72096 29.8881 8.72189V8.72189C29.8885 8.72234 29.8888 8.72294 29.8888 8.72357C30.0375 17.3685 37.0148 24.3487 45.6561 24.4975C45.6567 24.4975 45.6573 24.4977 45.6578 24.4982V24.4982C45.6587 24.4991 45.6587 24.5006 45.6577 24.5016V24.5016C45.6573 24.502 45.6567 24.5023 45.6561 24.5023C37.0148 24.6511 30.0375 31.6313 29.8888 40.2762C29.8888 40.2768 29.8885 40.2774 29.8881 40.2778V40.2778C29.8871 40.2788 29.8856 40.2788 29.8847 40.2778V40.2778C29.8842 40.2774 29.8839 40.2768 29.8839 40.2762C29.7352 31.6313 22.7579 24.6511 14.1166 24.5023C14.116 24.5023 14.1154 24.502 14.115 24.5016V24.5016C14.114 24.5006 14.114 24.4991 14.115 24.4982V24.4982C14.1154 24.4977 14.116 24.4975 14.1166 24.4975C22.7579 24.3487 29.7353 17.3685 29.884 8.72357C29.884 8.72294 29.8842 8.72234 29.8847 8.72189V8.72189Z" fill="white"/>
</svg>
