<svg width="30" height="46" viewBox="0 0 30 46" fill="none" xmlns="http://www.w3.org/2000/svg">
<path d="M9.96145 6.48461C10.1042 6.48794 10.2475 6.49457 10.3914 6.50489C11.4459 6.5802 12.7068 6.83449 13.9734 7.23714C18.2669 7.22533 22.3209 4.67595 24.0403 0.5L24.0427 0.500949C24.0209 0.554001 23.9994 0.60726 23.9783 0.66079C21.8035 6.18633 24.4977 12.412 30 14.6524L29.9977 14.6544C29.9444 14.6327 29.8909 14.6114 29.837 14.5904C24.2806 12.4277 18.02 15.1069 15.7671 20.5785C15.7565 20.5546 15.8202 20.4438 15.8307 20.417C16.9756 17.5083 16.7711 14.4055 15.5181 11.7922C14.2523 10.7379 12.5417 9.86178 10.9983 9.74671C6.80007 9.44694 4.56136 11.6613 4.25986 15.836C4.01233 19.2648 6.0989 22.3243 9.1784 23.4743C9.53041 23.6058 9.89547 23.7123 10.2714 23.7916C9.9005 23.8124 9.52412 23.81 9.14377 23.7829C4.34577 23.4402 0.735628 19.2948 1.08021 14.5236C1.41404 9.89877 5.34107 6.38393 9.95139 6.48442C9.90412 6.46444 9.85675 6.4447 9.80907 6.4253L9.80954 6.42408C9.86 6.44456 9.91054 6.4648 9.96145 6.48461Z" fill="white"/>
<path d="M20.0386 39.5154C19.8958 39.5121 19.7525 39.5054 19.6086 39.4951C18.5541 39.4198 17.2932 39.1655 16.0266 38.7629C11.7331 38.7747 7.67911 41.324 5.95972 45.5L5.95728 45.499C5.9791 45.446 6.00062 45.3927 6.02169 45.3392C8.1965 39.8137 5.50228 33.588 0 31.3476L0.00228763 31.3456C0.0556362 31.3673 0.109144 31.3886 0.162973 31.4095C5.71944 33.5723 11.98 30.8931 14.2329 25.4215C14.2435 25.4454 14.1798 25.5562 14.1693 25.583C13.0244 28.4917 13.2289 31.5945 14.4819 34.2078C15.7477 35.2621 17.4583 36.1382 19.0017 36.2533C23.1999 36.5531 25.4386 34.3387 25.7401 30.164C25.9877 26.7352 23.9011 23.6757 20.8216 22.5257C20.4696 22.3942 20.1045 22.2877 19.7286 22.2084C20.0995 22.1876 20.4759 22.19 20.8562 22.2171C25.6542 22.5598 29.2644 26.7052 28.9198 31.4764C28.586 36.1012 24.6589 39.6161 20.0486 39.5156C20.0959 39.5356 20.1432 39.5553 20.1909 39.5747L20.1905 39.5759C20.14 39.5554 20.0895 39.5352 20.0386 39.5154Z" fill="white"/>
</svg>
